<mxfile host="app.diagrams.net" modified="2024-06-27T04:16:59.607Z" agent="Mozilla/5.0 (Macintosh; Intel Mac OS X 10_15_7) AppleWebKit/537.36 (KHTML, like Gecko) Chrome/125.0.0.0 Safari/537.36" etag="eE-acrjDXEDC4MbvYuid" version="24.6.2" type="device">
  <diagram name="Page-1" id="i3nTFVdBFgkHJxC4hBws">
    <mxGraphModel dx="4537" dy="2906" grid="1" gridSize="10" guides="1" tooltips="1" connect="1" arrows="1" fold="1" page="1" pageScale="1" pageWidth="827" pageHeight="1169" math="0" shadow="0">
      <root>
        <mxCell id="0" />
        <mxCell id="1" parent="0" />
        <mxCell id="hVe1eKUD8T_nIxWZ-xXD-1" value="&lt;h1 style=&quot;box-sizing: border-box; margin-top: 0px; margin-right: 0px; margin-bottom: var(--su-2); margin-left: 0px; line-height: var(--lh-tight); text-align: start;&quot;&gt;&lt;font size=&quot;1&quot; style=&quot;&quot; face=&quot;-apple-system, system-ui, Segoe UI, Roboto, Helvetica, Arial, sans-serif, Apple Color Emoji, Segoe UI Emoji, Segoe UI Symbol&quot;&gt;&lt;span style=&quot;font-weight: 400; background-color: rgb(255, 255, 255); font-size: 23px;&quot;&gt;What happens when you Enter a URL in the browser &amp;amp; Hit enter??&lt;/span&gt;&lt;/font&gt;&lt;br&gt;&lt;/h1&gt;" style="rounded=0;whiteSpace=wrap;html=1;" vertex="1" parent="1">
          <mxGeometry x="145" y="-410" width="690" height="60" as="geometry" />
        </mxCell>
        <mxCell id="hVe1eKUD8T_nIxWZ-xXD-2" value="&lt;font style=&quot;font-size: 24px;&quot;&gt;What Is URL ??&lt;/font&gt;" style="rounded=0;whiteSpace=wrap;html=1;" vertex="1" parent="1">
          <mxGeometry x="-110" y="-80" width="220" height="60" as="geometry" />
        </mxCell>
        <mxCell id="hVe1eKUD8T_nIxWZ-xXD-3" value="&lt;font style=&quot;font-size: 24px;&quot;&gt;How URL works?&lt;/font&gt;" style="rounded=0;whiteSpace=wrap;html=1;" vertex="1" parent="1">
          <mxGeometry x="740" y="-80" width="290" height="60" as="geometry" />
        </mxCell>
        <mxCell id="hVe1eKUD8T_nIxWZ-xXD-4" value="" style="endArrow=classic;html=1;rounded=0;exitX=0.45;exitY=1.025;exitDx=0;exitDy=0;exitPerimeter=0;entryX=0.5;entryY=0;entryDx=0;entryDy=0;" edge="1" parent="1" source="hVe1eKUD8T_nIxWZ-xXD-1" target="hVe1eKUD8T_nIxWZ-xXD-2">
          <mxGeometry width="50" height="50" relative="1" as="geometry">
            <mxPoint x="380" y="290" as="sourcePoint" />
            <mxPoint x="430" y="240" as="targetPoint" />
          </mxGeometry>
        </mxCell>
        <mxCell id="hVe1eKUD8T_nIxWZ-xXD-5" value="" style="endArrow=classic;html=1;rounded=0;entryX=0.5;entryY=0;entryDx=0;entryDy=0;exitX=0.45;exitY=1.154;exitDx=0;exitDy=0;exitPerimeter=0;" edge="1" parent="1" source="hVe1eKUD8T_nIxWZ-xXD-1" target="hVe1eKUD8T_nIxWZ-xXD-3">
          <mxGeometry width="50" height="50" relative="1" as="geometry">
            <mxPoint x="430" y="100" as="sourcePoint" />
            <mxPoint x="280" y="250" as="targetPoint" />
          </mxGeometry>
        </mxCell>
        <mxCell id="hVe1eKUD8T_nIxWZ-xXD-6" value="" style="endArrow=classic;html=1;rounded=0;exitX=0.447;exitY=0.979;exitDx=0;exitDy=0;exitPerimeter=0;entryX=0.5;entryY=0;entryDx=0;entryDy=0;" edge="1" parent="1" source="hVe1eKUD8T_nIxWZ-xXD-2" target="hVe1eKUD8T_nIxWZ-xXD-11">
          <mxGeometry width="50" height="50" relative="1" as="geometry">
            <mxPoint x="410" y="330" as="sourcePoint" />
            <mxPoint x="-70" y="250" as="targetPoint" />
          </mxGeometry>
        </mxCell>
        <mxCell id="hVe1eKUD8T_nIxWZ-xXD-7" value="&lt;h1 style=&quot;box-sizing: border-box; margin-top: 0px; margin-right: 0px; margin-bottom: var(--su-2); margin-left: 0px; line-height: var(--lh-tight); text-align: start;&quot;&gt;&lt;pre style=&quot;box-sizing: border-box; margin-top: 0px; margin-bottom: 0px; overflow: auto;&quot; class=&quot;highlight plaintext&quot;&gt;&lt;font face=&quot;Helvetica&quot;&gt;https://&lt;/font&gt;&lt;font face=&quot;var(--ff-monospace)&quot;&gt;&lt;span style=&quot;font-weight: 400;&quot;&gt;&lt;br&gt;&lt;/span&gt;&lt;/font&gt;&lt;/pre&gt;&lt;/h1&gt;" style="rounded=0;whiteSpace=wrap;html=1;fillColor=#d5e8d4;strokeColor=#82b366;" vertex="1" parent="1">
          <mxGeometry x="-600" y="160" width="120" height="60" as="geometry" />
        </mxCell>
        <mxCell id="hVe1eKUD8T_nIxWZ-xXD-8" value="&lt;b&gt;&lt;font style=&quot;font-size: 18px;&quot;&gt;www.example.com:443&lt;/font&gt;&lt;/b&gt;" style="rounded=0;whiteSpace=wrap;html=1;fillColor=#dae8fc;strokeColor=#6c8ebf;" vertex="1" parent="1">
          <mxGeometry x="-460" y="160" width="230" height="60" as="geometry" />
        </mxCell>
        <mxCell id="hVe1eKUD8T_nIxWZ-xXD-9" value="&lt;h1 style=&quot;box-sizing: border-box; margin-top: 0px; margin-right: 0px; margin-bottom: var(--su-2); margin-left: 0px; line-height: var(--lh-tight); text-align: start;&quot;&gt;&lt;font style=&quot;font-size: 19px;&quot;&gt;/path/to/resource&lt;/font&gt;&lt;br&gt;&lt;/h1&gt;" style="rounded=0;whiteSpace=wrap;html=1;fillColor=#ffe6cc;strokeColor=#d79b00;" vertex="1" parent="1">
          <mxGeometry x="-210" y="160" width="180" height="60" as="geometry" />
        </mxCell>
        <mxCell id="hVe1eKUD8T_nIxWZ-xXD-10" value="&lt;h1 style=&quot;box-sizing: border-box; margin-top: 0px; margin-right: 0px; margin-bottom: var(--su-2); margin-left: 0px; line-height: var(--lh-tight); text-align: start;&quot;&gt;&lt;font style=&quot;font-size: 19px;&quot;&gt;?key1=value1&lt;/font&gt;&lt;br&gt;&lt;/h1&gt;" style="rounded=0;whiteSpace=wrap;html=1;fillColor=#e1d5e7;strokeColor=#9673a6;" vertex="1" parent="1">
          <mxGeometry x="-10" y="160" width="180" height="60" as="geometry" />
        </mxCell>
        <mxCell id="hVe1eKUD8T_nIxWZ-xXD-11" value="" style="rounded=0;whiteSpace=wrap;html=1;fillOpacity=0;" vertex="1" parent="1">
          <mxGeometry x="-610" y="140" width="800" height="100" as="geometry" />
        </mxCell>
        <mxCell id="hVe1eKUD8T_nIxWZ-xXD-12" value="&lt;div style=&quot;text-align: justify;&quot;&gt;&lt;span style=&quot;font-size: 24px; background-color: initial;&quot;&gt;This indicates the protocol used to access the resource. HTTP/ HTTPS / FTP etc&lt;/span&gt;&lt;/div&gt;" style="text;html=1;align=center;verticalAlign=middle;whiteSpace=wrap;rounded=0;" vertex="1" parent="1">
          <mxGeometry x="-880" y="250" width="410" height="120" as="geometry" />
        </mxCell>
        <mxCell id="hVe1eKUD8T_nIxWZ-xXD-13" value="&lt;div style=&quot;text-align: justify; font-size: 23px;&quot;&gt;&lt;span style=&quot;background-color: initial;&quot;&gt;&lt;font style=&quot;font-size: 23px;&quot;&gt;The domain name or IP address of the server where the resource is located. This part is necessary to locate the server on the internet.&lt;/font&gt;&lt;/span&gt;&lt;/div&gt;&lt;div style=&quot;text-align: justify; font-size: 23px;&quot;&gt;&lt;span style=&quot;background-color: initial;&quot;&gt;&lt;font style=&quot;font-size: 23px;&quot;&gt;&lt;br&gt;&lt;/font&gt;&lt;/span&gt;&lt;/div&gt;&lt;div style=&quot;text-align: justify; font-size: 23px;&quot;&gt;&lt;span style=&quot;background-color: initial;&quot;&gt;&lt;font style=&quot;font-size: 23px;&quot;&gt;Also, Specifies the port number on the server to connect to, which is optional property&lt;/font&gt;&lt;br&gt;&lt;/span&gt;&lt;/div&gt;" style="text;html=1;align=center;verticalAlign=middle;whiteSpace=wrap;rounded=0;" vertex="1" parent="1">
          <mxGeometry x="-650" y="430" width="410" height="270" as="geometry" />
        </mxCell>
        <mxCell id="hVe1eKUD8T_nIxWZ-xXD-14" value="&lt;div style=&quot;text-align: justify;&quot;&gt;&lt;span style=&quot;background-color: initial;&quot;&gt;&lt;font style=&quot;font-size: 23px;&quot;&gt;The specific location of the resource on the server. This often corresponds to a file or directory on the server.&lt;/font&gt;&lt;/span&gt;&lt;/div&gt;" style="text;html=1;align=center;verticalAlign=middle;whiteSpace=wrap;rounded=0;" vertex="1" parent="1">
          <mxGeometry x="-240" y="305" width="260" height="120" as="geometry" />
        </mxCell>
        <mxCell id="hVe1eKUD8T_nIxWZ-xXD-16" value="&lt;div style=&quot;text-align: justify;&quot;&gt;&lt;span style=&quot;font-size: 24px; background-color: initial;&quot;&gt;Provides additional parameters for the resource, usually in key-value pairs. It begins with a ? and separates parameters with &amp;amp;.&lt;/span&gt;&lt;/div&gt;" style="text;html=1;align=center;verticalAlign=middle;whiteSpace=wrap;rounded=0;" vertex="1" parent="1">
          <mxGeometry x="20" y="460" width="320" height="150" as="geometry" />
        </mxCell>
        <mxCell id="hVe1eKUD8T_nIxWZ-xXD-17" value="" style="endArrow=classic;html=1;rounded=0;exitX=0.05;exitY=1;exitDx=0;exitDy=0;exitPerimeter=0;entryX=0.488;entryY=0.167;entryDx=0;entryDy=0;entryPerimeter=0;" edge="1" parent="1" source="hVe1eKUD8T_nIxWZ-xXD-11" target="hVe1eKUD8T_nIxWZ-xXD-12">
          <mxGeometry width="50" height="50" relative="1" as="geometry">
            <mxPoint x="-210" y="430" as="sourcePoint" />
            <mxPoint x="-160" y="380" as="targetPoint" />
          </mxGeometry>
        </mxCell>
        <mxCell id="hVe1eKUD8T_nIxWZ-xXD-18" value="" style="endArrow=classic;html=1;rounded=0;exitX=0.318;exitY=1.003;exitDx=0;exitDy=0;exitPerimeter=0;entryX=0.5;entryY=0;entryDx=0;entryDy=0;" edge="1" parent="1" source="hVe1eKUD8T_nIxWZ-xXD-11" target="hVe1eKUD8T_nIxWZ-xXD-13">
          <mxGeometry width="50" height="50" relative="1" as="geometry">
            <mxPoint x="-130" y="380" as="sourcePoint" />
            <mxPoint x="-80" y="330" as="targetPoint" />
          </mxGeometry>
        </mxCell>
        <mxCell id="hVe1eKUD8T_nIxWZ-xXD-19" value="" style="endArrow=classic;html=1;rounded=0;exitX=0.607;exitY=1.017;exitDx=0;exitDy=0;exitPerimeter=0;" edge="1" parent="1" source="hVe1eKUD8T_nIxWZ-xXD-11" target="hVe1eKUD8T_nIxWZ-xXD-14">
          <mxGeometry width="50" height="50" relative="1" as="geometry">
            <mxPoint x="-346" y="250" as="sourcePoint" />
            <mxPoint x="-435" y="440" as="targetPoint" />
          </mxGeometry>
        </mxCell>
        <mxCell id="hVe1eKUD8T_nIxWZ-xXD-20" value="" style="endArrow=classic;html=1;rounded=0;exitX=0.889;exitY=0.989;exitDx=0;exitDy=0;exitPerimeter=0;" edge="1" parent="1" source="hVe1eKUD8T_nIxWZ-xXD-11">
          <mxGeometry width="50" height="50" relative="1" as="geometry">
            <mxPoint x="-346" y="250" as="sourcePoint" />
            <mxPoint x="180" y="450" as="targetPoint" />
          </mxGeometry>
        </mxCell>
        <mxCell id="hVe1eKUD8T_nIxWZ-xXD-22" value="" style="rounded=0;whiteSpace=wrap;html=1;fillColor=#f8cecc;strokeColor=#b85450;" vertex="1" parent="1">
          <mxGeometry x="500" y="750" width="250" height="190" as="geometry" />
        </mxCell>
        <mxCell id="hVe1eKUD8T_nIxWZ-xXD-23" value="" style="rounded=0;whiteSpace=wrap;html=1;fillColor=#f8cecc;strokeColor=#b85450;" vertex="1" parent="1">
          <mxGeometry x="780" y="750" width="250" height="190" as="geometry" />
        </mxCell>
        <mxCell id="hVe1eKUD8T_nIxWZ-xXD-24" value="" style="endArrow=classic;html=1;rounded=0;exitX=0.461;exitY=1.052;exitDx=0;exitDy=0;exitPerimeter=0;entryX=0.483;entryY=-0.01;entryDx=0;entryDy=0;entryPerimeter=0;" edge="1" parent="1" source="hVe1eKUD8T_nIxWZ-xXD-3" target="hVe1eKUD8T_nIxWZ-xXD-25">
          <mxGeometry width="50" height="50" relative="1" as="geometry">
            <mxPoint x="790" y="520" as="sourcePoint" />
            <mxPoint x="840" y="470" as="targetPoint" />
            <Array as="points" />
          </mxGeometry>
        </mxCell>
        <mxCell id="hVe1eKUD8T_nIxWZ-xXD-26" value="&lt;div style=&quot;text-align: justify;&quot;&gt;&lt;span style=&quot;font-size: 24px; background-color: initial;&quot;&gt;DNS LOOK-UP&lt;/span&gt;&lt;/div&gt;" style="text;html=1;align=center;verticalAlign=middle;resizable=0;points=[];autosize=1;strokeColor=none;fillColor=none;" vertex="1" parent="1">
          <mxGeometry x="460" y="625" width="190" height="40" as="geometry" />
        </mxCell>
        <mxCell id="hVe1eKUD8T_nIxWZ-xXD-27" value="&lt;font style=&quot;font-size: 22px;&quot;&gt;Browser Cache&lt;/font&gt;" style="text;html=1;align=center;verticalAlign=middle;whiteSpace=wrap;rounded=0;" vertex="1" parent="1">
          <mxGeometry x="510" y="802.5" width="220" height="45" as="geometry" />
        </mxCell>
        <mxCell id="hVe1eKUD8T_nIxWZ-xXD-28" value="&lt;font style=&quot;font-size: 22px;&quot;&gt;Operating System Cache&lt;/font&gt;" style="text;html=1;align=center;verticalAlign=middle;whiteSpace=wrap;rounded=0;" vertex="1" parent="1">
          <mxGeometry x="512.5" y="885" width="235" height="30" as="geometry" />
        </mxCell>
        <mxCell id="hVe1eKUD8T_nIxWZ-xXD-29" value="&lt;font style=&quot;font-size: 21px;&quot;&gt;#1 Local Cache Lookup&lt;/font&gt;" style="text;html=1;align=center;verticalAlign=middle;whiteSpace=wrap;rounded=0;" vertex="1" parent="1">
          <mxGeometry x="512.5" y="755" width="230" height="30" as="geometry" />
        </mxCell>
        <mxCell id="hVe1eKUD8T_nIxWZ-xXD-30" value="&lt;font style=&quot;font-size: 22px;&quot;&gt;#2 DNS Resolver&lt;/font&gt;" style="text;html=1;align=center;verticalAlign=middle;whiteSpace=wrap;rounded=0;" vertex="1" parent="1">
          <mxGeometry x="790" y="755" width="230" height="30" as="geometry" />
        </mxCell>
        <mxCell id="hVe1eKUD8T_nIxWZ-xXD-31" value="&lt;font style=&quot;font-size: 22px;&quot;&gt;DNS Server&lt;/font&gt;" style="text;html=1;align=center;verticalAlign=middle;whiteSpace=wrap;rounded=0;" vertex="1" parent="1">
          <mxGeometry x="825" y="885" width="160" height="30" as="geometry" />
        </mxCell>
        <mxCell id="hVe1eKUD8T_nIxWZ-xXD-34" value="" style="endArrow=classic;html=1;rounded=0;entryX=0.5;entryY=0;entryDx=0;entryDy=0;exitX=0.5;exitY=1;exitDx=0;exitDy=0;" edge="1" parent="1" source="hVe1eKUD8T_nIxWZ-xXD-30" target="hVe1eKUD8T_nIxWZ-xXD-31">
          <mxGeometry width="50" height="50" relative="1" as="geometry">
            <mxPoint x="1130" y="965" as="sourcePoint" />
            <mxPoint x="1180" y="915" as="targetPoint" />
          </mxGeometry>
        </mxCell>
        <mxCell id="hVe1eKUD8T_nIxWZ-xXD-39" value="Recursive Lookup to server" style="text;html=1;align=center;verticalAlign=middle;whiteSpace=wrap;rounded=0;" vertex="1" parent="1">
          <mxGeometry x="840" y="810" width="140" height="30" as="geometry" />
        </mxCell>
        <mxCell id="hVe1eKUD8T_nIxWZ-xXD-25" value="" style="rounded=0;whiteSpace=wrap;html=1;fillOpacity=0;fillColor=#f8cecc;strokeColor=#b85450;" vertex="1" parent="1">
          <mxGeometry x="450" y="690" width="635" height="300" as="geometry" />
        </mxCell>
        <mxCell id="hVe1eKUD8T_nIxWZ-xXD-42" value="&lt;font style=&quot;font-size: 22px;&quot;&gt;Web Server&lt;/font&gt;" style="rounded=0;whiteSpace=wrap;html=1;" vertex="1" parent="1">
          <mxGeometry x="1700" y="600" width="320" height="90" as="geometry" />
        </mxCell>
        <mxCell id="hVe1eKUD8T_nIxWZ-xXD-47" value="" style="endArrow=classic;html=1;rounded=0;exitX=1;exitY=0.5;exitDx=0;exitDy=0;entryX=0.123;entryY=-0.06;entryDx=0;entryDy=0;entryPerimeter=0;" edge="1" parent="1" source="hVe1eKUD8T_nIxWZ-xXD-3" target="hVe1eKUD8T_nIxWZ-xXD-42">
          <mxGeometry relative="1" as="geometry">
            <mxPoint x="1220" y="170" as="sourcePoint" />
            <mxPoint x="1660" y="355" as="targetPoint" />
            <Array as="points">
              <mxPoint x="1659" y="210" />
            </Array>
          </mxGeometry>
        </mxCell>
        <mxCell id="hVe1eKUD8T_nIxWZ-xXD-48" value="&lt;font style=&quot;font-size: 20px;&quot;&gt;#3 Browser stablish the TCP Connection with the server&lt;/font&gt;" style="edgeLabel;resizable=0;html=1;;align=center;verticalAlign=middle;rotation=45;" connectable="0" vertex="1" parent="hVe1eKUD8T_nIxWZ-xXD-47">
          <mxGeometry relative="1" as="geometry">
            <mxPoint x="107" y="80" as="offset" />
          </mxGeometry>
        </mxCell>
        <mxCell id="hVe1eKUD8T_nIxWZ-xXD-49" value="" style="endArrow=classic;html=1;rounded=0;entryX=0;entryY=0;entryDx=0;entryDy=0;exitX=1;exitY=0.5;exitDx=0;exitDy=0;" edge="1" parent="1" source="hVe1eKUD8T_nIxWZ-xXD-3" target="hVe1eKUD8T_nIxWZ-xXD-42">
          <mxGeometry relative="1" as="geometry">
            <mxPoint x="1030" y="-20" as="sourcePoint" />
            <mxPoint x="1590" y="420" as="targetPoint" />
          </mxGeometry>
        </mxCell>
        <mxCell id="hVe1eKUD8T_nIxWZ-xXD-50" value="&lt;font style=&quot;font-size: 17px;&quot;&gt;#4 Browser send the HTTP Connection Request to the server&lt;/font&gt;" style="edgeLabel;resizable=0;html=1;;align=center;verticalAlign=middle;rotation=45;" connectable="0" vertex="1" parent="hVe1eKUD8T_nIxWZ-xXD-49">
          <mxGeometry relative="1" as="geometry">
            <mxPoint x="-46" y="-56" as="offset" />
          </mxGeometry>
        </mxCell>
        <mxCell id="hVe1eKUD8T_nIxWZ-xXD-51" value="" style="endArrow=classic;html=1;rounded=0;exitX=0;exitY=1;exitDx=0;exitDy=0;entryX=1;entryY=1;entryDx=0;entryDy=0;" edge="1" parent="1" source="hVe1eKUD8T_nIxWZ-xXD-42" target="hVe1eKUD8T_nIxWZ-xXD-3">
          <mxGeometry relative="1" as="geometry">
            <mxPoint x="1550" y="507.5" as="sourcePoint" />
            <mxPoint x="1140" y="330" as="targetPoint" />
            <Array as="points">
              <mxPoint x="1180" y="550" />
            </Array>
          </mxGeometry>
        </mxCell>
        <mxCell id="hVe1eKUD8T_nIxWZ-xXD-52" value="&lt;font style=&quot;font-size: 17px;&quot;&gt;#5 Server Send Back the HTTP Response&lt;/font&gt;" style="edgeLabel;resizable=0;html=1;;align=center;verticalAlign=middle;rotation=70;" connectable="0" vertex="1" parent="hVe1eKUD8T_nIxWZ-xXD-51">
          <mxGeometry relative="1" as="geometry">
            <mxPoint x="-36" y="-164" as="offset" />
          </mxGeometry>
        </mxCell>
      </root>
    </mxGraphModel>
  </diagram>
</mxfile>
